<svg xmlns="http://www.w3.org/2000/svg" width="28" height="28">
<style>
    .fg0 { fill: #eeecde; }
    .fg1 { fill: #f3be5a; }
    .fg2 { fill: #ea7a00; }
    .fg3 { fill: #cd2222; }
    .bg0 { fill: #222222; }
</style>
<polygon class="bg0" points="
    11,11
    11,10
    8,10
    8,0
    9,0
    9,9
    12,9
    12,8
    10,8
    10,0
    11,0
    11,7
    12,7
    12,0
    13,0
    13,5
    14,5
    14,0
    15,0
    15,6
    14,6
    14,11
    15,11
    15,7
    16,7
    16,0
    17,0
    17,8
    16,8
    16,9
    18,9
    18,0
    19,0
    19,8
    20,8
    20,0
    21,0
    21,9
    19,9
    19,10
    17,10
    17,11

    22,11
    22,10
    28,10
    28,11
    23,11
    23,12
    28,12
    28,13
    17,13
    17,14
    28,14
    28,15
    23,15
    23,16
    28,16
    28,17
    22,17
    22,16
    21,16
    21,18
    28,18
    28,19
    22,19
    22,20
    28,20
    28,21
    21,21
    21,19
    20,19
    20,17
    17,17

    17,18
    19,18
    19,23
    21,23
    21,28
    20,28
    20,24
    19,24
    19,28
    18,28
    18,19
    16,19
    16,20
    17,20
    17,28
    16,28
    16,21
    15,21
    15,28
    14,28
    14,17
    13,17
    13,28
    12,28
    12,20
    11,20
    11,28
    10,28
    10,22
    9,22
    9,28
    8,28
    8,21
    10,21
    10,19
    11,19
    11,17

    9,17
    9,19
    7,19
    7,21
    0,21
    0,20
    6,20
    6,19
    0,19
    0,18
    8,18
    8,16
    6,16
    6,17
    0,17
    0,16
    5,16
    5,15
    0,15
    0,14
    11,14
    11,13
    0,13
    0,12
    6,12
    6,11
    0,11
    0,10
    6,10
    6,9
    0,9
    0,8
    4,8
    4,7
    0,7
    0,6
    5,6
    5,8
    7,8
    7,11
    11,11
"/>
<polygon class="fg3" points="
    2,21
    2,22
    3,22
    3,23
    4,23
    4,24
    5,24
    5,25
    6,25
    6,26
    21,26
    21,21
"/>
<polygon class="fg2" points="
    2,4
    2,21
    6,21
    6,1
    5,1
    5,2
    4,2
    4,3
    3,3
    3,4
"/>
<polygon class="fg2" points="
    21,22
    21,26
    22,26
    22,25
    23,25
    23,24
    24,24
    24,23
    25,23
    25,22
"/>
<polygon class="fg0" points="
    6,1
    12,1
    12,2
    13,2
    13,3
    14,3
    14,4
    22,4
    22,5
    23,5
    23,6
    24,6
    24,7
    25,7
    25,8
    26,8
    26,22
    21,22
    21,8
    6,8
"/>
<polygon class="fg1" points="
    3,4
    4,4
    4,3
    5,3
    5,2
    12,2
    12,3
    13,3
    13,4
    14,4
    14,5
    22,5
    22,6
    23,6
    23,7
    24,7
    24,8
    25,8
    25,22
    24,22
    24,23
    23,23
    23,24
    22,24
    22,25
    6,25
    6,24
    5,24
    5,23
    4,23
    4,22
    3,22
"/>
<!-- l -->
<polygon class="bg0" points="
    4,11
    5,11
    5,17
    4,17
"/>
<!-- i -->
<polygon class="bg0" points="
    6,14
    7,14
    7,17
    6,17
"/>
<polygon class="bg0" points="
    6,12
    7,12
    7,13
    6,13
"/>
<!-- t -->
<polygon class="bg0" points="
    8,12
    9,12
    9,13
    10,13
    10,14
    9,14
    9,16
    10,16
    10,17
    9,17
    9,16
    8,16
"/>
<!-- t -->
<polygon class="bg0" points="
    11,12
    12,12
    12,13
    13,13
    13,14
    12,14
    12,16
    13,16
    13,17
    12,17
    12,16
    11,16
"/>
<!-- l -->
<polygon class="bg0" points="
    14,11
    15,11
    15,17
    14,17
"/>
<!-- e -->
<polygon class="bg0" points="
    16,14
    17,14
    17,13
    18,13
    18,15
    17,15
    17,16
    18,16
    18,17
    17,17
    17,16
    16,16
"/>
<!-- f -->
<polygon class="bg0" points="
    19,12
    20,12
    20,11
    21,11
    21,12
    20,12
    20,13
    21,13
    21,14
    20,14
    20,17
    19,17
"/>
<!-- s -->
<polygon class="bg0" points="
    22,14
    23,14
    23,13
    24,13
    24,14
    23,14
    23,15
    24,15
    24,16
    23,16
    23,17
    22,17
    22,16
    23,16
    23,15
    22,15
"/>
</svg>
